<svg xmlns="http://www.w3.org/2000/svg" xmlns:xlink="http://www.w3.org/1999/xlink" width="2000" zoomAndPan="magnify" viewBox="0 0 1500 1499.999933" height="2000" preserveAspectRatio="xMidYMid meet" version="1.0"><path fill="#000000" d="M 1475.695312 1499.890625 L 24.421875 1499.890625 C 11.285156 1499.890625 0.632812 1489.238281 0.632812 1476.101562 L 0.632812 1340.527344 C 0.632812 1114.972656 184.136719 931.46875 409.695312 931.46875 L 1090.421875 931.46875 C 1315.984375 931.46875 1499.488281 1114.972656 1499.488281 1340.527344 L 1499.488281 1476.101562 C 1499.488281 1489.238281 1488.835938 1499.890625 1475.695312 1499.890625 Z M 750.058594 867.507812 C 510.886719 867.507812 316.308594 672.925781 316.308594 433.753906 C 316.308594 194.582031 510.886719 0 750.058594 0 C 989.230469 0 1183.8125 194.582031 1183.8125 433.753906 C 1183.8125 672.925781 989.230469 867.507812 750.058594 867.507812 Z M 750.058594 867.507812 " fill-opacity="1" fill-rule="nonzero"/></svg>