<svg xmlns="http://www.w3.org/2000/svg" xmlns:xlink="http://www.w3.org/1999/xlink" width="2000" zoomAndPan="magnify" viewBox="0 0 1500 1499.999933" height="2000" preserveAspectRatio="xMidYMid meet" version="1.0"><defs><clipPath id="4a00c9428a"><path d="M 150 0 L 1405.5 0 L 1405.5 1500 L 150 1500 Z M 150 0 " clip-rule="nonzero"/></clipPath></defs><g clip-path="url(#4a00c9428a)"><path fill="#000000" d="M 777.371094 0.0078125 C 976.375 158.613281 1253.179688 250.691406 1405.320312 292.472656 C 1378.878906 1273.148438 885.65625 1469.046875 778.992188 1500 C 672.917969 1468.417969 183.207031 1269.996094 150.191406 292.25 C 302.457031 250.335938 578.679688 158.257812 777.371094 0.0078125 Z M 777.371094 0.0078125 " fill-opacity="1" fill-rule="evenodd"/></g><path fill="#000000" d="M 492.4375 705.292969 L 491.105469 702.691406 L 488.328125 703.421875 L 490.332031 705.007812 C 491.027344 705.230469 491.734375 705.324219 492.4375 705.292969 Z M 492.4375 705.292969 " fill-opacity="1" fill-rule="evenodd"/><path fill="#000000" d="M 497.070312 703.0625 C 496.25 703.824219 495.320312 704.425781 494.519531 704.863281 C 495.164062 704.617188 495.804688 704.246094 496.417969 703.699219 C 496.609375 703.53125 496.835938 703.328125 497.070312 703.0625 Z M 497.070312 703.0625 " fill-opacity="1" fill-rule="evenodd"/></svg>