<svg xmlns="http://www.w3.org/2000/svg" xmlns:xlink="http://www.w3.org/1999/xlink" width="2000" zoomAndPan="magnify" viewBox="0 0 1500 1499.999933" height="2000" preserveAspectRatio="xMidYMid meet" version="1.0"><defs><clipPath id="15ba0fce32"><path d="M 0 11 L 1478 11 L 1478 1489.941406 L 0 1489.941406 Z M 0 11 " clip-rule="nonzero"/></clipPath></defs><g clip-path="url(#15ba0fce32)"><path fill="#000000" d="M 1259.089844 1270.980469 L 1040.105469 1270.980469 L 1040.105469 928.035156 C 1040.105469 846.25 1038.640625 740.992188 926.222656 740.992188 C 813.808594 740.992188 794.722656 830.089844 794.722656 922.113281 L 794.722656 1270.980469 L 575.738281 1270.980469 L 575.738281 565.722656 L 785.945312 565.722656 L 785.945312 662.136719 L 788.871094 662.136719 C 831.707031 588.851562 911.457031 545.035156 996.292969 548.238281 C 1218.203125 548.238281 1259.15625 694.25 1259.15625 884.148438 L 1259.15625 1271.050781 Z M 328.753906 469.3125 C 258.546875 469.3125 201.710938 412.46875 201.640625 342.25 C 201.570312 272.03125 258.476562 215.1875 328.683594 215.117188 C 398.894531 215.117188 455.730469 271.960938 455.796875 342.179688 C 455.867188 412.398438 398.964844 469.242188 328.753906 469.3125 M 438.246094 1270.980469 L 219.054688 1270.980469 L 219.054688 565.722656 L 438.246094 565.722656 Z M 1368.230469 11.773438 L 109.074219 11.773438 C 49.523438 11.148438 0.695312 58.796875 0 118.355469 L 0 1382.996094 C 0.695312 1442.554688 49.523438 1490.273438 109.074219 1489.648438 L 1368.300781 1489.648438 C 1427.992188 1490.414062 1476.957031 1442.695312 1477.792969 1382.996094 L 1477.792969 118.21875 C 1476.886719 58.585938 1427.921875 10.9375 1368.230469 11.703125 " fill-opacity="1" fill-rule="nonzero"/></g></svg>