<svg xmlns="http://www.w3.org/2000/svg" xmlns:xlink="http://www.w3.org/1999/xlink" width="2000" zoomAndPan="magnify" viewBox="0 0 1500 1499.999933" height="2000" preserveAspectRatio="xMidYMid meet" version="1.0"><defs><clipPath id="d51a4de823"><path d="M 0 194 L 1303 194 L 1303 1495.546875 L 0 1495.546875 Z M 0 194 " clip-rule="nonzero"/></clipPath></defs><path fill="#040606" d="M 627.164062 452.257812 L 940.679688 138.742188 C 970.507812 108.914062 970.507812 64.109375 940.679688 34.148438 C 910.855469 4.320312 866.046875 4.320312 836.21875 34.148438 L 522.570312 340.242188 C 492.746094 370.199219 492.746094 422.433594 522.570312 452.257812 C 552.53125 474.664062 597.339844 474.664062 627.164062 452.257812 " fill-opacity="1" fill-rule="nonzero"/><path fill="#040606" d="M 1470.808594 556.851562 C 1440.980469 526.894531 1396.175781 526.894531 1366.347656 556.851562 L 1052.699219 870.367188 C 1022.871094 900.195312 1022.871094 945.003906 1052.699219 974.960938 C 1082.660156 1004.789062 1127.332031 1004.789062 1157.160156 974.960938 L 1470.808594 661.3125 C 1500.636719 631.488281 1500.636719 586.679688 1470.808594 556.851562 " fill-opacity="1" fill-rule="nonzero"/><g clip-path="url(#d51a4de823)"><path fill="#040606" d="M 1291.582031 482.21875 L 1015.316406 205.953125 C 1000.46875 190.972656 985.488281 190.972656 970.507812 205.953125 L 701.800781 482.21875 C 686.820312 497.066406 686.820312 512.046875 701.800781 526.894531 L 783.855469 609.082031 L 22.402344 1370.667969 C -7.421875 1400.496094 -7.421875 1445.304688 22.402344 1475.128906 C 37.382812 1490.109375 74.632812 1512.515625 126.863281 1475.128906 L 888.449219 713.542969 L 970.507812 795.734375 C 985.488281 810.714844 1000.46875 810.714844 1015.316406 795.734375 L 1291.582031 519.46875 C 1306.5625 512.046875 1306.5625 489.640625 1291.582031 482.21875 " fill-opacity="1" fill-rule="nonzero"/></g></svg>