<svg xmlns="http://www.w3.org/2000/svg" xmlns:xlink="http://www.w3.org/1999/xlink" width="2000" zoomAndPan="magnify" viewBox="0 0 1500 1499.999933" height="2000" preserveAspectRatio="xMidYMid meet" version="1.0"><defs><clipPath id="aff4d43b82"><path d="M 160.3125 172 L 1189 172 L 1189 1500 L 160.3125 1500 Z M 160.3125 172 " clip-rule="nonzero"/></clipPath></defs><g clip-path="url(#aff4d43b82)"><path fill="#000000" d="M 160.792969 172.027344 L 160.792969 1500 L 1188.503906 1500 L 1188.503906 398.945312 L 1009.785156 398.945312 C 994.308594 398.945312 981.78125 386.417969 981.78125 370.949219 L 981.78125 172.027344 Z M 779.480469 1104.371094 L 317.03125 1104.371094 C 301.554688 1104.371094 289.027344 1091.847656 289.027344 1076.375 C 289.027344 1060.902344 301.554688 1048.378906 317.03125 1048.378906 L 779.480469 1048.378906 C 794.957031 1048.378906 807.488281 1060.902344 807.488281 1076.375 C 807.488281 1091.847656 794.957031 1104.371094 779.480469 1104.371094 Z M 1031.894531 923.5 L 317.03125 923.5 C 301.554688 923.5 289.027344 910.976562 289.027344 895.503906 C 289.027344 880.035156 301.554688 867.507812 317.03125 867.507812 L 1031.894531 867.507812 C 1047.371094 867.507812 1059.898438 880.035156 1059.898438 895.503906 C 1059.898438 910.976562 1047.371094 923.5 1031.894531 923.5 Z M 1031.894531 742.265625 L 317.03125 742.265625 C 301.554688 742.265625 289.027344 729.738281 289.027344 714.269531 C 289.027344 698.796875 301.554688 686.273438 317.03125 686.273438 L 1031.894531 686.273438 C 1047.371094 686.273438 1059.898438 698.796875 1059.898438 714.269531 C 1059.898438 729.738281 1047.371094 742.265625 1031.894531 742.265625 Z M 1031.894531 505.035156 C 1047.371094 505.035156 1059.898438 517.558594 1059.898438 533.03125 C 1059.898438 548.5 1047.371094 561.027344 1031.894531 561.027344 L 317.03125 561.027344 C 301.554688 561.027344 289.027344 548.5 289.027344 533.03125 C 289.027344 517.558594 301.554688 505.035156 317.03125 505.035156 Z M 1031.894531 505.035156 " fill-opacity="1" fill-rule="nonzero"/></g><path fill="#000000" d="M 1153.128906 342.953125 L 1037.792969 216.234375 L 1037.792969 342.953125 Z M 1153.128906 342.953125 " fill-opacity="1" fill-rule="nonzero"/><path fill="#000000" d="M 311.503906 0 L 311.503906 116.035156 L 1009.785156 116.035156 C 1010.15625 116.035156 1010.15625 116.035156 1010.523438 116.035156 C 1012.367188 116.035156 1014.207031 116.773438 1016.050781 117.140625 C 1017.894531 117.511719 1019.734375 117.511719 1021.210938 118.246094 C 1022.316406 118.984375 1023.421875 119.71875 1024.894531 120.457031 C 1026.738281 121.5625 1028.578125 122.667969 1030.054688 124.507812 C 1030.054688 124.507812 1030.421875 124.878906 1030.421875 124.878906 L 1237.140625 351.792969 C 1238.246094 352.898438 1238.617188 354.003906 1239.351562 355.476562 C 1240.457031 357.316406 1241.5625 358.792969 1242.667969 360.632812 C 1243.40625 362.476562 1243.773438 364.6875 1243.773438 366.894531 C 1244.144531 368.371094 1244.511719 369.472656 1244.511719 370.949219 L 1244.511719 1327.972656 L 1339.582031 1327.972656 L 1339.582031 0 Z M 311.503906 0 " fill-opacity="1" fill-rule="nonzero"/></svg>