<svg
  xmlns="http://www.w3.org/2000/svg"
  width="2000"
  height="2000"
  viewBox="0 0 1500 1500"
  preserveAspectRatio="xMidYMid meet"
  version="1.0"
>
  <defs>
    <clipPath id="clip">
      <rect x="0" y="0" width="943" height="1500" />
    </clipPath>
  </defs>

  <!-- ✅ Fondo circular blanco -->
  <circle cx="750" cy="750" r="750" fill="#ffffff" />

  <!-- ✅ Letra G (tal cual la tenías) -->
  <g transform="matrix(1, 0, 0, 1, 268, 0)">
    <g clip-path="url(#clip)">
      <g fill="#000000" fill-opacity="1">
        <g transform="translate(1.012588, 1233.411674)">
          <path d="M 760.578125 -456.34375 L 884.328125 -456.34375 L 884.328125 -104.421875 C 839.640625 -67.460938 787.644531 -39.097656 728.34375 -19.328125 C 669.039062 0.429688 607.164062 10.3125 542.71875 10.3125 C 451.613281 10.3125 369.535156 -9.664062 296.484375 -49.625 C 223.441406 -89.59375 166.078125 -144.597656 124.390625 -214.640625 C 82.710938 -284.679688 61.875 -363.53125 61.875 -451.1875 C 61.875 -538.84375 82.710938 -617.90625 124.390625 -688.375 C 166.078125 -758.851562 223.660156 -813.859375 297.140625 -853.390625 C 370.617188 -892.921875 453.335938 -912.6875 545.296875 -912.6875 C 617.484375 -912.6875 683.007812 -900.867188 741.875 -877.234375 C 800.75 -853.597656 850.8125 -819.007812 892.0625 -773.46875 L 812.140625 -693.546875 C 739.953125 -763.148438 652.722656 -797.953125 550.453125 -797.953125 C 481.703125 -797.953125 420.039062 -783.128906 365.46875 -753.484375 C 310.894531 -723.835938 268.132812 -682.585938 237.1875 -629.734375 C 206.25 -576.878906 190.78125 -517.363281 190.78125 -451.1875 C 190.78125 -385.875 206.25 -326.789062 237.1875 -273.9375 C 268.132812 -221.082031 310.894531 -179.613281 365.46875 -149.53125 C 420.039062 -119.457031 481.269531 -104.421875 549.15625 -104.421875 C 629.945312 -104.421875 700.421875 -123.753906 760.578125 -162.421875 Z" />
        </g>
      </g>

      <!-- línea inferior -->
      <path
        transform="matrix(2.270677, 0, 0, 2.270677, 610.520318, 759.975563)"
        fill="none"
        stroke="#000000"
        stroke-width="50"
        d="M 0 25 L 120.673685 25"
      />
    </g>
  </g>
</svg>
