<svg xmlns="http://www.w3.org/2000/svg" xmlns:xlink="http://www.w3.org/1999/xlink" width="2000" zoomAndPan="magnify" viewBox="0 0 1500 749.999995" height="1000" preserveAspectRatio="xMidYMid meet" version="1.0"><defs><g/><clipPath id="379e93c5d2"><rect x="0" width="1380" y="0" height="318"/></clipPath></defs><g transform="matrix(1, 0, 0, 1, 48, 216)"><g clip-path="url(#379e93c5d2)"><g fill="#000000" fill-opacity="1"><g transform="translate(0.850938, 148.434206)"><g><path d="M 103.625 -114.34375 L 106.515625 -79.0625 L 103.625 -79.0625 C 100.71875 -87.851562 96.957031 -94.476562 92.34375 -98.9375 C 85.6875 -105.363281 77.140625 -108.578125 66.703125 -108.578125 C 52.460938 -108.578125 41.632812 -102.941406 34.21875 -91.671875 C 28 -82.171875 24.890625 -70.847656 24.890625 -57.703125 C 24.890625 -47.046875 26.953125 -37.316406 31.078125 -28.515625 C 35.203125 -19.722656 40.601562 -13.28125 47.28125 -9.1875 C 53.957031 -5.09375 60.8125 -3.046875 67.84375 -3.046875 C 71.96875 -3.046875 75.953125 -3.566406 79.796875 -4.609375 C 83.648438 -5.660156 87.363281 -7.203125 90.9375 -9.234375 L 90.9375 -41.546875 C 90.9375 -47.148438 90.507812 -50.816406 89.65625 -52.546875 C 88.800781 -54.285156 87.476562 -55.609375 85.6875 -56.515625 C 83.90625 -57.421875 80.765625 -57.875 76.265625 -57.875 L 76.265625 -61.015625 L 119.546875 -61.015625 L 119.546875 -57.875 L 117.484375 -57.875 C 113.191406 -57.875 110.25 -56.445312 108.65625 -53.59375 C 107.5625 -51.550781 107.015625 -47.535156 107.015625 -41.546875 L 107.015625 -7.34375 C 100.691406 -3.925781 94.453125 -1.421875 88.296875 0.171875 C 82.140625 1.765625 75.296875 2.5625 67.765625 2.5625 C 46.171875 2.5625 29.765625 -4.363281 18.546875 -18.21875 C 10.140625 -28.601562 5.9375 -40.585938 5.9375 -54.171875 C 5.9375 -64.003906 8.300781 -73.425781 13.03125 -82.4375 C 18.632812 -93.15625 26.328125 -101.398438 36.109375 -107.171875 C 44.296875 -111.953125 53.96875 -114.34375 65.125 -114.34375 C 69.195312 -114.34375 72.894531 -114.015625 76.21875 -113.359375 C 79.539062 -112.703125 84.253906 -111.242188 90.359375 -108.984375 C 93.429688 -107.835938 95.492188 -107.265625 96.546875 -107.265625 C 97.585938 -107.265625 98.476562 -107.742188 99.21875 -108.703125 C 99.957031 -109.660156 100.410156 -111.539062 100.578125 -114.34375 Z M 103.625 -114.34375 "/></g></g></g><g fill="#000000" fill-opacity="1"><g transform="translate(122.756537, 148.434206)"><g><path d="M 71.484375 -75.515625 L 71.484375 -29.765625 C 71.484375 -21.023438 71.6875 -15.675781 72.09375 -13.71875 C 72.507812 -11.769531 73.171875 -10.410156 74.078125 -9.640625 C 74.984375 -8.867188 76.039062 -8.484375 77.25 -8.484375 C 78.957031 -8.484375 80.878906 -8.953125 83.015625 -9.890625 L 84.171875 -7 L 61.578125 2.3125 L 57.875 2.3125 L 57.875 -13.6875 C 51.382812 -6.65625 46.4375 -2.226562 43.03125 -0.40625 C 39.625 1.40625 36.023438 2.3125 32.234375 2.3125 C 28.003906 2.3125 24.335938 1.085938 21.234375 -1.359375 C 18.128906 -3.804688 15.96875 -6.953125 14.75 -10.796875 C 13.539062 -14.648438 12.9375 -20.09375 12.9375 -27.125 L 12.9375 -60.84375 C 12.9375 -64.414062 12.550781 -66.890625 11.78125 -68.265625 C 11.019531 -69.640625 9.878906 -70.695312 8.359375 -71.4375 C 6.847656 -72.175781 4.117188 -72.519531 0.171875 -72.46875 L 0.171875 -75.515625 L 26.625 -75.515625 L 26.625 -24.984375 C 26.625 -17.941406 27.847656 -13.320312 30.296875 -11.125 C 32.742188 -8.925781 35.695312 -7.828125 39.15625 -7.828125 C 41.519531 -7.828125 44.195312 -8.566406 47.1875 -10.046875 C 50.1875 -11.535156 53.75 -14.367188 57.875 -18.546875 L 57.875 -61.34375 C 57.875 -65.625 57.085938 -68.519531 55.515625 -70.03125 C 53.953125 -71.539062 50.695312 -72.351562 45.75 -72.46875 L 45.75 -75.515625 Z M 71.484375 -75.515625 "/></g></g></g><g fill="#000000" fill-opacity="1"><g transform="translate(207.159033, 148.434206)"><g><path d="M 24.484375 -117.234375 C 26.796875 -117.234375 28.757812 -116.421875 30.375 -114.796875 C 32 -113.179688 32.8125 -111.21875 32.8125 -108.90625 C 32.8125 -106.59375 32 -104.613281 30.375 -102.96875 C 28.757812 -101.320312 26.796875 -100.5 24.484375 -100.5 C 22.171875 -100.5 20.191406 -101.320312 18.546875 -102.96875 C 16.898438 -104.613281 16.078125 -106.59375 16.078125 -108.90625 C 16.078125 -111.21875 16.882812 -113.179688 18.5 -114.796875 C 20.125 -116.421875 22.117188 -117.234375 24.484375 -117.234375 Z M 31.328125 -77.75 L 31.328125 -17.0625 C 31.328125 -12.332031 31.671875 -9.1875 32.359375 -7.625 C 33.046875 -6.0625 34.0625 -4.894531 35.40625 -4.125 C 36.75 -3.351562 39.207031 -2.96875 42.78125 -2.96875 L 42.78125 0 L 6.09375 0 L 6.09375 -2.96875 C 9.78125 -2.96875 12.253906 -3.320312 13.515625 -4.03125 C 14.785156 -4.75 15.789062 -5.929688 16.53125 -7.578125 C 17.269531 -9.234375 17.640625 -12.394531 17.640625 -17.0625 L 17.640625 -46.171875 C 17.640625 -54.359375 17.394531 -59.660156 16.90625 -62.078125 C 16.519531 -63.835938 15.910156 -65.0625 15.078125 -65.75 C 14.253906 -66.4375 13.128906 -66.78125 11.703125 -66.78125 C 10.171875 -66.78125 8.300781 -66.367188 6.09375 -65.546875 L 4.953125 -68.515625 L 27.703125 -77.75 Z M 31.328125 -77.75 "/></g></g></g><g fill="#000000" fill-opacity="1"><g transform="translate(254.058507, 148.434206)"><g><path d="M 31.25 -117.234375 L 31.25 -17.0625 C 31.25 -12.332031 31.59375 -9.195312 32.28125 -7.65625 C 32.96875 -6.125 34.023438 -4.957031 35.453125 -4.15625 C 36.878906 -3.363281 39.546875 -2.96875 43.453125 -2.96875 L 43.453125 0 L 6.4375 0 L 6.4375 -2.96875 C 9.894531 -2.96875 12.253906 -3.320312 13.515625 -4.03125 C 14.785156 -4.75 15.773438 -5.929688 16.484375 -7.578125 C 17.203125 -9.234375 17.5625 -12.394531 17.5625 -17.0625 L 17.5625 -85.65625 C 17.5625 -94.175781 17.367188 -99.410156 16.984375 -101.359375 C 16.597656 -103.316406 15.976562 -104.648438 15.125 -105.359375 C 14.269531 -106.078125 13.1875 -106.4375 11.875 -106.4375 C 10.445312 -106.4375 8.632812 -105.992188 6.4375 -105.109375 L 5.03125 -108 L 27.53125 -117.234375 Z M 31.25 -117.234375 "/></g></g></g><g fill="#000000" fill-opacity="1"><g transform="translate(300.957982, 148.434206)"><g><path d="M 31.25 -117.234375 L 31.25 -17.0625 C 31.25 -12.332031 31.59375 -9.195312 32.28125 -7.65625 C 32.96875 -6.125 34.023438 -4.957031 35.453125 -4.15625 C 36.878906 -3.363281 39.546875 -2.96875 43.453125 -2.96875 L 43.453125 0 L 6.4375 0 L 6.4375 -2.96875 C 9.894531 -2.96875 12.253906 -3.320312 13.515625 -4.03125 C 14.785156 -4.75 15.773438 -5.929688 16.484375 -7.578125 C 17.203125 -9.234375 17.5625 -12.394531 17.5625 -17.0625 L 17.5625 -85.65625 C 17.5625 -94.175781 17.367188 -99.410156 16.984375 -101.359375 C 16.597656 -103.316406 15.976562 -104.648438 15.125 -105.359375 C 14.269531 -106.078125 13.1875 -106.4375 11.875 -106.4375 C 10.445312 -106.4375 8.632812 -105.992188 6.4375 -105.109375 L 5.03125 -108 L 27.53125 -117.234375 Z M 31.25 -117.234375 "/></g></g></g><g fill="#000000" fill-opacity="1"><g transform="translate(347.857456, 148.434206)"><g><path d="M 17.96875 -47.078125 C 17.914062 -35.859375 20.640625 -27.0625 26.140625 -20.6875 C 31.628906 -14.3125 38.085938 -11.125 45.515625 -11.125 C 50.453125 -11.125 54.75 -12.484375 58.40625 -15.203125 C 62.0625 -17.929688 65.128906 -22.59375 67.609375 -29.1875 L 70.15625 -27.53125 C 69 -20 65.644531 -13.140625 60.09375 -6.953125 C 54.550781 -0.773438 47.601562 2.3125 39.25 2.3125 C 30.175781 2.3125 22.410156 -1.21875 15.953125 -8.28125 C 9.492188 -15.34375 6.265625 -24.835938 6.265625 -36.765625 C 6.265625 -49.679688 9.578125 -59.753906 16.203125 -66.984375 C 22.828125 -74.210938 31.140625 -77.828125 41.140625 -77.828125 C 49.597656 -77.828125 56.546875 -75.035156 61.984375 -69.453125 C 67.429688 -63.878906 70.15625 -56.421875 70.15625 -47.078125 Z M 17.96875 -51.859375 L 52.921875 -51.859375 C 52.648438 -56.691406 52.078125 -60.097656 51.203125 -62.078125 C 49.828125 -65.160156 47.773438 -67.578125 45.046875 -69.328125 C 42.328125 -71.085938 39.484375 -71.96875 36.515625 -71.96875 C 31.953125 -71.96875 27.867188 -70.195312 24.265625 -66.65625 C 20.671875 -63.113281 18.570312 -58.179688 17.96875 -51.859375 Z M 17.96875 -51.859375 "/></g></g></g><g fill="#000000" fill-opacity="1"><g transform="translate(422.781197, 148.434206)"><g><path d="M 27.375 -77.75 L 27.375 -60.765625 C 33.695312 -72.085938 40.179688 -77.75 46.828125 -77.75 C 49.847656 -77.75 52.347656 -76.828125 54.328125 -74.984375 C 56.304688 -73.140625 57.296875 -71.007812 57.296875 -68.59375 C 57.296875 -66.445312 56.582031 -64.628906 55.15625 -63.140625 C 53.726562 -61.660156 52.023438 -60.921875 50.046875 -60.921875 C 48.117188 -60.921875 45.957031 -61.867188 43.5625 -63.765625 C 41.175781 -65.660156 39.40625 -66.609375 38.25 -66.609375 C 37.257812 -66.609375 36.1875 -66.0625 35.03125 -64.96875 C 32.5625 -62.707031 30.007812 -58.992188 27.375 -53.828125 L 27.375 -17.640625 C 27.375 -13.460938 27.894531 -10.300781 28.9375 -8.15625 C 29.65625 -6.675781 30.921875 -5.441406 32.734375 -4.453125 C 34.546875 -3.460938 37.15625 -2.96875 40.5625 -2.96875 L 40.5625 0 L 1.890625 0 L 1.890625 -2.96875 C 5.742188 -2.96875 8.601562 -3.570312 10.46875 -4.78125 C 11.84375 -5.65625 12.804688 -7.054688 13.359375 -8.984375 C 13.628906 -9.921875 13.765625 -12.585938 13.765625 -16.984375 L 13.765625 -46.25 C 13.765625 -55.039062 13.585938 -60.273438 13.234375 -61.953125 C 12.878906 -63.628906 12.21875 -64.851562 11.25 -65.625 C 10.289062 -66.394531 9.097656 -66.78125 7.671875 -66.78125 C 5.960938 -66.78125 4.035156 -66.367188 1.890625 -65.546875 L 1.078125 -68.515625 L 23.90625 -77.75 Z M 27.375 -77.75 "/></g></g></g><g fill="#000000" fill-opacity="1"><g transform="translate(478.994578, 148.434206)"><g><path d="M 27.703125 -61.671875 C 33.191406 -67.160156 36.429688 -70.320312 37.421875 -71.15625 C 39.898438 -73.238281 42.566406 -74.859375 45.421875 -76.015625 C 48.285156 -77.171875 51.117188 -77.75 53.921875 -77.75 C 58.648438 -77.75 62.71875 -76.375 66.125 -73.625 C 69.53125 -70.875 71.8125 -66.890625 72.96875 -61.671875 C 78.625 -68.265625 83.398438 -72.59375 87.296875 -74.65625 C 91.203125 -76.71875 95.21875 -77.75 99.34375 -77.75 C 103.351562 -77.75 106.910156 -76.71875 110.015625 -74.65625 C 113.117188 -72.59375 115.582031 -69.222656 117.40625 -64.546875 C 118.613281 -61.359375 119.21875 -56.359375 119.21875 -49.546875 L 119.21875 -17.0625 C 119.21875 -12.332031 119.570312 -9.09375 120.28125 -7.34375 C 120.832031 -6.132812 121.847656 -5.101562 123.328125 -4.25 C 124.816406 -3.394531 127.238281 -2.96875 130.59375 -2.96875 L 130.59375 0 L 93.328125 0 L 93.328125 -2.96875 L 94.890625 -2.96875 C 98.128906 -2.96875 100.660156 -3.597656 102.484375 -4.859375 C 103.742188 -5.742188 104.648438 -7.144531 105.203125 -9.0625 C 105.421875 -10 105.53125 -12.664062 105.53125 -17.0625 L 105.53125 -49.546875 C 105.53125 -55.703125 104.785156 -60.046875 103.296875 -62.578125 C 101.160156 -66.085938 97.726562 -67.84375 93 -67.84375 C 90.082031 -67.84375 87.15625 -67.113281 84.21875 -65.65625 C 81.28125 -64.207031 77.722656 -61.503906 73.546875 -57.546875 L 73.375 -56.640625 L 73.546875 -53.09375 L 73.546875 -17.0625 C 73.546875 -11.894531 73.832031 -8.679688 74.40625 -7.421875 C 74.976562 -6.160156 76.0625 -5.101562 77.65625 -4.25 C 79.25 -3.394531 81.972656 -2.96875 85.828125 -2.96875 L 85.828125 0 L 47.65625 0 L 47.65625 -2.96875 C 51.832031 -2.96875 54.703125 -3.460938 56.265625 -4.453125 C 57.828125 -5.441406 58.914062 -6.925781 59.53125 -8.90625 C 59.800781 -9.84375 59.9375 -12.5625 59.9375 -17.0625 L 59.9375 -49.546875 C 59.9375 -55.703125 59.03125 -60.128906 57.21875 -62.828125 C 54.800781 -66.335938 51.421875 -68.09375 47.078125 -68.09375 C 44.109375 -68.09375 41.164062 -67.296875 38.25 -65.703125 C 33.6875 -63.285156 30.171875 -60.566406 27.703125 -57.546875 L 27.703125 -17.0625 C 27.703125 -12.113281 28.046875 -8.894531 28.734375 -7.40625 C 29.421875 -5.925781 30.4375 -4.816406 31.78125 -4.078125 C 33.125 -3.335938 35.859375 -2.96875 39.984375 -2.96875 L 39.984375 0 L 2.640625 0 L 2.640625 -2.96875 C 6.097656 -2.96875 8.515625 -3.335938 9.890625 -4.078125 C 11.265625 -4.816406 12.304688 -6 13.015625 -7.625 C 13.734375 -9.25 14.09375 -12.394531 14.09375 -17.0625 L 14.09375 -45.921875 C 14.09375 -54.222656 13.847656 -59.582031 13.359375 -62 C 12.972656 -63.8125 12.367188 -65.0625 11.546875 -65.75 C 10.722656 -66.4375 9.59375 -66.78125 8.15625 -66.78125 C 6.625 -66.78125 4.785156 -66.367188 2.640625 -65.546875 L 1.40625 -68.515625 L 24.15625 -77.75 L 27.703125 -77.75 Z M 27.703125 -61.671875 "/></g></g></g><g fill="#000000" fill-opacity="1"><g transform="translate(610.29655, 148.434206)"><g><path d="M 42.21875 -77.75 C 53.644531 -77.75 62.820312 -73.40625 69.75 -64.71875 C 75.625 -57.300781 78.5625 -48.78125 78.5625 -39.15625 C 78.5625 -32.394531 76.941406 -25.550781 73.703125 -18.625 C 70.460938 -11.707031 66 -6.488281 60.3125 -2.96875 C 54.625 0.550781 48.285156 2.3125 41.296875 2.3125 C 29.921875 2.3125 20.882812 -2.222656 14.1875 -11.296875 C 8.519531 -18.929688 5.6875 -27.503906 5.6875 -37.015625 C 5.6875 -43.941406 7.40625 -50.828125 10.84375 -57.671875 C 14.28125 -64.515625 18.800781 -69.570312 24.40625 -72.84375 C 30.007812 -76.113281 35.945312 -77.75 42.21875 -77.75 Z M 39.65625 -72.390625 C 36.738281 -72.390625 33.8125 -71.519531 30.875 -69.78125 C 27.9375 -68.050781 25.554688 -65.015625 23.734375 -60.671875 C 21.921875 -56.335938 21.015625 -50.757812 21.015625 -43.9375 C 21.015625 -32.945312 23.195312 -23.46875 27.5625 -15.5 C 31.9375 -7.53125 37.695312 -3.546875 44.84375 -3.546875 C 50.175781 -3.546875 54.570312 -5.742188 58.03125 -10.140625 C 61.5 -14.535156 63.234375 -22.09375 63.234375 -32.8125 C 63.234375 -46.21875 60.347656 -56.769531 54.578125 -64.46875 C 50.671875 -69.75 45.695312 -72.390625 39.65625 -72.390625 Z M 39.65625 -72.390625 "/></g></g></g><g fill="#000000" fill-opacity="1"><g transform="translate(694.699046, 148.434206)"><g/></g></g><g fill="#000000" fill-opacity="1"><g transform="translate(736.900294, 148.434206)"><g><path d="M 35.28125 -105.6875 L 35.28125 -61.5 L 59.859375 -61.5 C 66.234375 -61.5 70.488281 -62.460938 72.625 -64.390625 C 75.488281 -66.921875 77.085938 -71.375 77.421875 -77.75 L 80.46875 -77.75 L 80.46875 -38.828125 L 77.421875 -38.828125 C 76.648438 -44.273438 75.878906 -47.765625 75.109375 -49.296875 C 74.117188 -51.222656 72.492188 -52.734375 70.234375 -53.828125 C 67.984375 -54.929688 64.523438 -55.484375 59.859375 -55.484375 L 35.28125 -55.484375 L 35.28125 -18.625 C 35.28125 -13.6875 35.5 -10.679688 35.9375 -9.609375 C 36.382812 -8.535156 37.15625 -7.679688 38.25 -7.046875 C 39.351562 -6.410156 41.441406 -6.09375 44.515625 -6.09375 L 63.484375 -6.09375 C 69.804688 -6.09375 74.394531 -6.53125 77.25 -7.40625 C 80.101562 -8.289062 82.851562 -10.023438 85.5 -12.609375 C 88.90625 -16.015625 92.394531 -21.15625 95.96875 -28.03125 L 99.265625 -28.03125 L 89.609375 0 L 3.46875 0 L 3.46875 -3.046875 L 7.421875 -3.046875 C 10.054688 -3.046875 12.554688 -3.679688 14.921875 -4.953125 C 16.679688 -5.828125 17.875 -7.144531 18.5 -8.90625 C 19.132812 -10.664062 19.453125 -14.265625 19.453125 -19.703125 L 19.453125 -92.34375 C 19.453125 -99.425781 18.738281 -103.789062 17.3125 -105.4375 C 15.332031 -107.644531 12.035156 -108.75 7.421875 -108.75 L 3.46875 -108.75 L 3.46875 -111.796875 L 89.609375 -111.796875 L 90.859375 -87.3125 L 87.640625 -87.3125 C 86.484375 -93.1875 85.203125 -97.222656 83.796875 -99.421875 C 82.398438 -101.617188 80.328125 -103.296875 77.578125 -104.453125 C 75.378906 -105.273438 71.503906 -105.6875 65.953125 -105.6875 Z M 35.28125 -105.6875 "/></g></g></g><g fill="#000000" fill-opacity="1"><g transform="translate(840.013152, 148.434206)"><g><path d="M 2.21875 -75.515625 L 37.765625 -75.515625 L 37.765625 -72.46875 C 35.503906 -72.46875 33.921875 -72.082031 33.015625 -71.3125 C 32.109375 -70.539062 31.65625 -69.523438 31.65625 -68.265625 C 31.65625 -66.941406 32.617188 -64.90625 34.546875 -62.15625 C 35.148438 -61.28125 36.054688 -59.910156 37.265625 -58.046875 L 42.625 -49.46875 L 48.8125 -58.046875 C 52.769531 -63.484375 54.75 -66.914062 54.75 -68.34375 C 54.75 -69.5 54.28125 -70.472656 53.34375 -71.265625 C 52.40625 -72.066406 50.894531 -72.46875 48.8125 -72.46875 L 48.8125 -75.515625 L 74.359375 -75.515625 L 74.359375 -72.46875 C 71.671875 -72.300781 69.335938 -71.554688 67.359375 -70.234375 C 64.660156 -68.367188 60.976562 -64.304688 56.3125 -58.046875 L 46 -44.265625 L 64.796875 -17.234375 C 69.410156 -10.578125 72.707031 -6.578125 74.6875 -5.234375 C 76.664062 -3.890625 79.222656 -3.132812 82.359375 -2.96875 L 82.359375 0 L 46.75 0 L 46.75 -2.96875 C 49.21875 -2.96875 51.140625 -3.515625 52.515625 -4.609375 C 53.554688 -5.378906 54.078125 -6.398438 54.078125 -7.671875 C 54.078125 -8.929688 52.320312 -12.117188 48.8125 -17.234375 L 37.765625 -33.390625 L 25.640625 -17.234375 C 21.898438 -12.234375 20.03125 -9.265625 20.03125 -8.328125 C 20.03125 -7.003906 20.648438 -5.804688 21.890625 -4.734375 C 23.128906 -3.671875 24.984375 -3.082031 27.453125 -2.96875 L 27.453125 0 L 2.796875 0 L 2.796875 -2.96875 C 4.773438 -3.238281 6.507812 -3.925781 8 -5.03125 C 10.082031 -6.625 13.597656 -10.691406 18.546875 -17.234375 L 34.375 -38.25 L 20.03125 -59.03125 C 15.96875 -64.96875 12.820312 -68.691406 10.59375 -70.203125 C 8.363281 -71.710938 5.570312 -72.46875 2.21875 -72.46875 Z M 2.21875 -75.515625 "/></g></g></g><g fill="#000000" fill-opacity="1"><g transform="translate(924.415648, 148.434206)"><g><path d="M -0.171875 -68.015625 L 23.078125 -77.421875 L 26.21875 -77.421875 L 26.21875 -59.765625 C 30.125 -66.421875 34.039062 -71.082031 37.96875 -73.75 C 41.894531 -76.414062 46.03125 -77.75 50.375 -77.75 C 57.957031 -77.75 64.273438 -74.78125 69.328125 -68.84375 C 75.546875 -61.582031 78.65625 -52.128906 78.65625 -40.484375 C 78.65625 -27.453125 74.914062 -16.675781 67.4375 -8.15625 C 61.28125 -1.175781 53.53125 2.3125 44.1875 2.3125 C 40.125 2.3125 36.609375 1.734375 33.640625 0.578125 C 31.441406 -0.242188 28.96875 -1.894531 26.21875 -4.375 L 26.21875 18.625 C 26.21875 23.789062 26.53125 27.078125 27.15625 28.484375 C 27.789062 29.890625 28.890625 31.003906 30.453125 31.828125 C 32.023438 32.648438 34.875 33.0625 39 33.0625 L 39 36.109375 L -0.578125 36.109375 L -0.578125 33.0625 L 1.484375 33.0625 C 4.503906 33.113281 7.085938 32.535156 9.234375 31.328125 C 10.273438 30.722656 11.082031 29.742188 11.65625 28.390625 C 12.238281 27.046875 12.53125 23.628906 12.53125 18.140625 L 12.53125 -53.265625 C 12.53125 -58.148438 12.3125 -61.25 11.875 -62.5625 C 11.4375 -63.882812 10.734375 -64.875 9.765625 -65.53125 C 8.804688 -66.195312 7.503906 -66.53125 5.859375 -66.53125 C 4.535156 -66.53125 2.859375 -66.144531 0.828125 -65.375 Z M 26.21875 -54.90625 L 26.21875 -26.71875 C 26.21875 -20.613281 26.460938 -16.597656 26.953125 -14.671875 C 27.722656 -11.484375 29.601562 -8.679688 32.59375 -6.265625 C 35.59375 -3.847656 39.375 -2.640625 43.9375 -2.640625 C 49.4375 -2.640625 53.890625 -4.78125 57.296875 -9.0625 C 61.742188 -14.675781 63.96875 -22.566406 63.96875 -32.734375 C 63.96875 -44.273438 61.441406 -53.148438 56.390625 -59.359375 C 52.867188 -63.648438 48.691406 -65.796875 43.859375 -65.796875 C 41.222656 -65.796875 38.613281 -65.132812 36.03125 -63.8125 C 34.050781 -62.820312 30.78125 -59.851562 26.21875 -54.90625 Z M 26.21875 -54.90625 "/></g></g></g><g fill="#000000" fill-opacity="1"><g transform="translate(1008.818144, 148.434206)"><g><path d="M 42.21875 -77.75 C 53.644531 -77.75 62.820312 -73.40625 69.75 -64.71875 C 75.625 -57.300781 78.5625 -48.78125 78.5625 -39.15625 C 78.5625 -32.394531 76.941406 -25.550781 73.703125 -18.625 C 70.460938 -11.707031 66 -6.488281 60.3125 -2.96875 C 54.625 0.550781 48.285156 2.3125 41.296875 2.3125 C 29.921875 2.3125 20.882812 -2.222656 14.1875 -11.296875 C 8.519531 -18.929688 5.6875 -27.503906 5.6875 -37.015625 C 5.6875 -43.941406 7.40625 -50.828125 10.84375 -57.671875 C 14.28125 -64.515625 18.800781 -69.570312 24.40625 -72.84375 C 30.007812 -76.113281 35.945312 -77.75 42.21875 -77.75 Z M 39.65625 -72.390625 C 36.738281 -72.390625 33.8125 -71.519531 30.875 -69.78125 C 27.9375 -68.050781 25.554688 -65.015625 23.734375 -60.671875 C 21.921875 -56.335938 21.015625 -50.757812 21.015625 -43.9375 C 21.015625 -32.945312 23.195312 -23.46875 27.5625 -15.5 C 31.9375 -7.53125 37.695312 -3.546875 44.84375 -3.546875 C 50.175781 -3.546875 54.570312 -5.742188 58.03125 -10.140625 C 61.5 -14.535156 63.234375 -22.09375 63.234375 -32.8125 C 63.234375 -46.21875 60.347656 -56.769531 54.578125 -64.46875 C 50.671875 -69.75 45.695312 -72.390625 39.65625 -72.390625 Z M 59.609375 -114.59375 L 35.296875 -86.15625 L 32.484375 -86.15625 L 41.140625 -114.59375 Z M 59.609375 -114.59375 "/></g></g></g><g fill="#000000" fill-opacity="1"><g transform="translate(1093.22064, 148.434206)"><g><path d="M 54.078125 -77.75 L 54.078125 -52.015625 L 51.359375 -52.015625 C 49.273438 -60.097656 46.597656 -65.59375 43.328125 -68.5 C 40.054688 -71.414062 35.890625 -72.875 30.828125 -72.875 C 26.984375 -72.875 23.878906 -71.859375 21.515625 -69.828125 C 19.148438 -67.796875 17.96875 -65.539062 17.96875 -63.0625 C 17.96875 -59.988281 18.847656 -57.351562 20.609375 -55.15625 C 22.316406 -52.90625 25.78125 -50.515625 31 -47.984375 L 43.03125 -42.125 C 54.1875 -36.6875 59.765625 -29.515625 59.765625 -20.609375 C 59.765625 -13.742188 57.164062 -8.207031 51.96875 -4 C 46.78125 0.207031 40.972656 2.3125 34.546875 2.3125 C 29.929688 2.3125 24.65625 1.484375 18.71875 -0.171875 C 16.90625 -0.710938 15.421875 -0.984375 14.265625 -0.984375 C 12.992188 -0.984375 12.003906 -0.269531 11.296875 1.15625 L 8.578125 1.15625 L 8.578125 -25.8125 L 11.296875 -25.8125 C 12.835938 -18.113281 15.773438 -12.3125 20.109375 -8.40625 C 24.453125 -4.507812 29.316406 -2.5625 34.703125 -2.5625 C 38.492188 -2.5625 41.582031 -3.671875 43.96875 -5.890625 C 46.363281 -8.117188 47.5625 -10.800781 47.5625 -13.9375 C 47.5625 -17.726562 46.226562 -20.914062 43.5625 -23.5 C 40.90625 -26.082031 35.59375 -29.351562 27.625 -33.3125 C 19.65625 -37.269531 14.429688 -40.84375 11.953125 -44.03125 C 9.484375 -47.15625 8.25 -51.109375 8.25 -55.890625 C 8.25 -62.109375 10.375 -67.304688 14.625 -71.484375 C 18.882812 -75.660156 24.394531 -77.75 31.15625 -77.75 C 34.125 -77.75 37.726562 -77.113281 41.96875 -75.84375 C 44.769531 -75.019531 46.632812 -74.609375 47.5625 -74.609375 C 48.445312 -74.609375 49.132812 -74.800781 49.625 -75.1875 C 50.125 -75.570312 50.703125 -76.425781 51.359375 -77.75 Z M 54.078125 -77.75 "/></g></g></g><g fill="#000000" fill-opacity="1"><g transform="translate(1158.912858, 148.434206)"><g><path d="M 24.484375 -117.234375 C 26.796875 -117.234375 28.757812 -116.421875 30.375 -114.796875 C 32 -113.179688 32.8125 -111.21875 32.8125 -108.90625 C 32.8125 -106.59375 32 -104.613281 30.375 -102.96875 C 28.757812 -101.320312 26.796875 -100.5 24.484375 -100.5 C 22.171875 -100.5 20.191406 -101.320312 18.546875 -102.96875 C 16.898438 -104.613281 16.078125 -106.59375 16.078125 -108.90625 C 16.078125 -111.21875 16.882812 -113.179688 18.5 -114.796875 C 20.125 -116.421875 22.117188 -117.234375 24.484375 -117.234375 Z M 31.328125 -77.75 L 31.328125 -17.0625 C 31.328125 -12.332031 31.671875 -9.1875 32.359375 -7.625 C 33.046875 -6.0625 34.0625 -4.894531 35.40625 -4.125 C 36.75 -3.351562 39.207031 -2.96875 42.78125 -2.96875 L 42.78125 0 L 6.09375 0 L 6.09375 -2.96875 C 9.78125 -2.96875 12.253906 -3.320312 13.515625 -4.03125 C 14.785156 -4.75 15.789062 -5.929688 16.53125 -7.578125 C 17.269531 -9.234375 17.640625 -12.394531 17.640625 -17.0625 L 17.640625 -46.171875 C 17.640625 -54.359375 17.394531 -59.660156 16.90625 -62.078125 C 16.519531 -63.835938 15.910156 -65.0625 15.078125 -65.75 C 14.253906 -66.4375 13.128906 -66.78125 11.703125 -66.78125 C 10.171875 -66.78125 8.300781 -66.367188 6.09375 -65.546875 L 4.953125 -68.515625 L 27.703125 -77.75 Z M 31.328125 -77.75 "/></g></g></g><g fill="#000000" fill-opacity="1"><g transform="translate(1205.812332, 148.434206)"><g><path d="M 27.203125 -100.328125 L 27.203125 -75.515625 L 44.84375 -75.515625 L 44.84375 -69.75 L 27.203125 -69.75 L 27.203125 -20.78125 C 27.203125 -15.882812 27.898438 -12.582031 29.296875 -10.875 C 30.703125 -9.175781 32.503906 -8.328125 34.703125 -8.328125 C 36.515625 -8.328125 38.273438 -8.890625 39.984375 -10.015625 C 41.691406 -11.140625 43.007812 -12.800781 43.9375 -15 L 47.15625 -15 C 45.226562 -9.613281 42.503906 -5.5625 38.984375 -2.84375 C 35.472656 -0.125 31.847656 1.234375 28.109375 1.234375 C 25.585938 1.234375 23.113281 0.535156 20.6875 -0.859375 C 18.269531 -2.265625 16.484375 -4.269531 15.328125 -6.875 C 14.179688 -9.488281 13.609375 -13.519531 13.609375 -18.96875 L 13.609375 -69.75 L 1.65625 -69.75 L 1.65625 -72.46875 C 4.675781 -73.675781 7.765625 -75.722656 10.921875 -78.609375 C 14.085938 -81.492188 16.90625 -84.914062 19.375 -88.875 C 20.632812 -90.957031 22.394531 -94.773438 24.65625 -100.328125 Z M 27.203125 -100.328125 "/></g></g></g><g fill="#000000" fill-opacity="1"><g transform="translate(1252.711807, 148.434206)"><g><path d="M 42.21875 -77.75 C 53.644531 -77.75 62.820312 -73.40625 69.75 -64.71875 C 75.625 -57.300781 78.5625 -48.78125 78.5625 -39.15625 C 78.5625 -32.394531 76.941406 -25.550781 73.703125 -18.625 C 70.460938 -11.707031 66 -6.488281 60.3125 -2.96875 C 54.625 0.550781 48.285156 2.3125 41.296875 2.3125 C 29.921875 2.3125 20.882812 -2.222656 14.1875 -11.296875 C 8.519531 -18.929688 5.6875 -27.503906 5.6875 -37.015625 C 5.6875 -43.941406 7.40625 -50.828125 10.84375 -57.671875 C 14.28125 -64.515625 18.800781 -69.570312 24.40625 -72.84375 C 30.007812 -76.113281 35.945312 -77.75 42.21875 -77.75 Z M 39.65625 -72.390625 C 36.738281 -72.390625 33.8125 -71.519531 30.875 -69.78125 C 27.9375 -68.050781 25.554688 -65.015625 23.734375 -60.671875 C 21.921875 -56.335938 21.015625 -50.757812 21.015625 -43.9375 C 21.015625 -32.945312 23.195312 -23.46875 27.5625 -15.5 C 31.9375 -7.53125 37.695312 -3.546875 44.84375 -3.546875 C 50.175781 -3.546875 54.570312 -5.742188 58.03125 -10.140625 C 61.5 -14.535156 63.234375 -22.09375 63.234375 -32.8125 C 63.234375 -46.21875 60.347656 -56.769531 54.578125 -64.46875 C 50.671875 -69.75 45.695312 -72.390625 39.65625 -72.390625 Z M 39.65625 -72.390625 "/></g></g></g><g fill="#000000" fill-opacity="1"><g transform="translate(1337.175668, 148.434206)"><g/></g></g><g fill="#000000" fill-opacity="1"><g transform="translate(0.850938, 280.506572)"><g><path d="M 101.65625 -114.34375 L 104.203125 -76.34375 L 101.65625 -76.34375 C 98.25 -87.71875 93.382812 -95.90625 87.0625 -100.90625 C 80.738281 -105.90625 73.15625 -108.40625 64.3125 -108.40625 C 56.882812 -108.40625 50.175781 -106.523438 44.1875 -102.765625 C 38.195312 -99.003906 33.484375 -93 30.046875 -84.75 C 26.609375 -76.507812 24.890625 -66.257812 24.890625 -54 C 24.890625 -43.882812 26.507812 -35.117188 29.75 -27.703125 C 33 -20.285156 37.878906 -14.597656 44.390625 -10.640625 C 50.910156 -6.679688 58.347656 -4.703125 66.703125 -4.703125 C 73.953125 -4.703125 80.351562 -6.253906 85.90625 -9.359375 C 91.457031 -12.460938 97.554688 -18.628906 104.203125 -27.859375 L 106.765625 -26.21875 C 101.160156 -16.269531 94.617188 -8.984375 87.140625 -4.359375 C 79.671875 0.253906 70.796875 2.5625 60.515625 2.5625 C 41.992188 2.5625 27.648438 -4.3125 17.484375 -18.0625 C 9.890625 -28.28125 6.09375 -40.316406 6.09375 -54.171875 C 6.09375 -65.328125 8.59375 -75.578125 13.59375 -84.921875 C 18.601562 -94.265625 25.488281 -101.503906 34.25 -106.640625 C 43.019531 -111.773438 52.597656 -114.34375 62.984375 -114.34375 C 71.066406 -114.34375 79.035156 -112.363281 86.890625 -108.40625 C 89.203125 -107.195312 90.851562 -106.59375 91.84375 -106.59375 C 93.320312 -106.59375 94.613281 -107.117188 95.71875 -108.171875 C 97.144531 -109.648438 98.160156 -111.707031 98.765625 -114.34375 Z M 101.65625 -114.34375 "/></g></g></g><g fill="#000000" fill-opacity="1"><g transform="translate(113.44255, 280.506572)"><g><path d="M 27.375 -77.75 L 27.375 -60.765625 C 33.695312 -72.085938 40.179688 -77.75 46.828125 -77.75 C 49.847656 -77.75 52.347656 -76.828125 54.328125 -74.984375 C 56.304688 -73.140625 57.296875 -71.007812 57.296875 -68.59375 C 57.296875 -66.445312 56.582031 -64.628906 55.15625 -63.140625 C 53.726562 -61.660156 52.023438 -60.921875 50.046875 -60.921875 C 48.117188 -60.921875 45.957031 -61.867188 43.5625 -63.765625 C 41.175781 -65.660156 39.40625 -66.609375 38.25 -66.609375 C 37.257812 -66.609375 36.1875 -66.0625 35.03125 -64.96875 C 32.5625 -62.707031 30.007812 -58.992188 27.375 -53.828125 L 27.375 -17.640625 C 27.375 -13.460938 27.894531 -10.300781 28.9375 -8.15625 C 29.65625 -6.675781 30.921875 -5.441406 32.734375 -4.453125 C 34.546875 -3.460938 37.15625 -2.96875 40.5625 -2.96875 L 40.5625 0 L 1.890625 0 L 1.890625 -2.96875 C 5.742188 -2.96875 8.601562 -3.570312 10.46875 -4.78125 C 11.84375 -5.65625 12.804688 -7.054688 13.359375 -8.984375 C 13.628906 -9.921875 13.765625 -12.585938 13.765625 -16.984375 L 13.765625 -46.25 C 13.765625 -55.039062 13.585938 -60.273438 13.234375 -61.953125 C 12.878906 -63.628906 12.21875 -64.851562 11.25 -65.625 C 10.289062 -66.394531 9.097656 -66.78125 7.671875 -66.78125 C 5.960938 -66.78125 4.035156 -66.367188 1.890625 -65.546875 L 1.078125 -68.515625 L 23.90625 -77.75 Z M 27.375 -77.75 "/></g></g></g><g fill="#000000" fill-opacity="1"><g transform="translate(169.655932, 280.506572)"><g><path d="M 24.484375 -117.234375 C 26.796875 -117.234375 28.757812 -116.421875 30.375 -114.796875 C 32 -113.179688 32.8125 -111.21875 32.8125 -108.90625 C 32.8125 -106.59375 32 -104.613281 30.375 -102.96875 C 28.757812 -101.320312 26.796875 -100.5 24.484375 -100.5 C 22.171875 -100.5 20.191406 -101.320312 18.546875 -102.96875 C 16.898438 -104.613281 16.078125 -106.59375 16.078125 -108.90625 C 16.078125 -111.21875 16.882812 -113.179688 18.5 -114.796875 C 20.125 -116.421875 22.117188 -117.234375 24.484375 -117.234375 Z M 31.328125 -77.75 L 31.328125 -17.0625 C 31.328125 -12.332031 31.671875 -9.1875 32.359375 -7.625 C 33.046875 -6.0625 34.0625 -4.894531 35.40625 -4.125 C 36.75 -3.351562 39.207031 -2.96875 42.78125 -2.96875 L 42.78125 0 L 6.09375 0 L 6.09375 -2.96875 C 9.78125 -2.96875 12.253906 -3.320312 13.515625 -4.03125 C 14.785156 -4.75 15.789062 -5.929688 16.53125 -7.578125 C 17.269531 -9.234375 17.640625 -12.394531 17.640625 -17.0625 L 17.640625 -46.171875 C 17.640625 -54.359375 17.394531 -59.660156 16.90625 -62.078125 C 16.519531 -63.835938 15.910156 -65.0625 15.078125 -65.75 C 14.253906 -66.4375 13.128906 -66.78125 11.703125 -66.78125 C 10.171875 -66.78125 8.300781 -66.367188 6.09375 -65.546875 L 4.953125 -68.515625 L 27.703125 -77.75 Z M 31.328125 -77.75 "/></g></g></g><g fill="#000000" fill-opacity="1"><g transform="translate(216.555406, 280.506572)"><g><path d="M 27.703125 -61.671875 C 33.191406 -67.160156 36.429688 -70.320312 37.421875 -71.15625 C 39.898438 -73.238281 42.566406 -74.859375 45.421875 -76.015625 C 48.285156 -77.171875 51.117188 -77.75 53.921875 -77.75 C 58.648438 -77.75 62.71875 -76.375 66.125 -73.625 C 69.53125 -70.875 71.8125 -66.890625 72.96875 -61.671875 C 78.625 -68.265625 83.398438 -72.59375 87.296875 -74.65625 C 91.203125 -76.71875 95.21875 -77.75 99.34375 -77.75 C 103.351562 -77.75 106.910156 -76.71875 110.015625 -74.65625 C 113.117188 -72.59375 115.582031 -69.222656 117.40625 -64.546875 C 118.613281 -61.359375 119.21875 -56.359375 119.21875 -49.546875 L 119.21875 -17.0625 C 119.21875 -12.332031 119.570312 -9.09375 120.28125 -7.34375 C 120.832031 -6.132812 121.847656 -5.101562 123.328125 -4.25 C 124.816406 -3.394531 127.238281 -2.96875 130.59375 -2.96875 L 130.59375 0 L 93.328125 0 L 93.328125 -2.96875 L 94.890625 -2.96875 C 98.128906 -2.96875 100.660156 -3.597656 102.484375 -4.859375 C 103.742188 -5.742188 104.648438 -7.144531 105.203125 -9.0625 C 105.421875 -10 105.53125 -12.664062 105.53125 -17.0625 L 105.53125 -49.546875 C 105.53125 -55.703125 104.785156 -60.046875 103.296875 -62.578125 C 101.160156 -66.085938 97.726562 -67.84375 93 -67.84375 C 90.082031 -67.84375 87.15625 -67.113281 84.21875 -65.65625 C 81.28125 -64.207031 77.722656 -61.503906 73.546875 -57.546875 L 73.375 -56.640625 L 73.546875 -53.09375 L 73.546875 -17.0625 C 73.546875 -11.894531 73.832031 -8.679688 74.40625 -7.421875 C 74.976562 -6.160156 76.0625 -5.101562 77.65625 -4.25 C 79.25 -3.394531 81.972656 -2.96875 85.828125 -2.96875 L 85.828125 0 L 47.65625 0 L 47.65625 -2.96875 C 51.832031 -2.96875 54.703125 -3.460938 56.265625 -4.453125 C 57.828125 -5.441406 58.914062 -6.925781 59.53125 -8.90625 C 59.800781 -9.84375 59.9375 -12.5625 59.9375 -17.0625 L 59.9375 -49.546875 C 59.9375 -55.703125 59.03125 -60.128906 57.21875 -62.828125 C 54.800781 -66.335938 51.421875 -68.09375 47.078125 -68.09375 C 44.109375 -68.09375 41.164062 -67.296875 38.25 -65.703125 C 33.6875 -63.285156 30.171875 -60.566406 27.703125 -57.546875 L 27.703125 -17.0625 C 27.703125 -12.113281 28.046875 -8.894531 28.734375 -7.40625 C 29.421875 -5.925781 30.4375 -4.816406 31.78125 -4.078125 C 33.125 -3.335938 35.859375 -2.96875 39.984375 -2.96875 L 39.984375 0 L 2.640625 0 L 2.640625 -2.96875 C 6.097656 -2.96875 8.515625 -3.335938 9.890625 -4.078125 C 11.265625 -4.816406 12.304688 -6 13.015625 -7.625 C 13.734375 -9.25 14.09375 -12.394531 14.09375 -17.0625 L 14.09375 -45.921875 C 14.09375 -54.222656 13.847656 -59.582031 13.359375 -62 C 12.972656 -63.8125 12.367188 -65.0625 11.546875 -65.75 C 10.722656 -66.4375 9.59375 -66.78125 8.15625 -66.78125 C 6.625 -66.78125 4.785156 -66.367188 2.640625 -65.546875 L 1.40625 -68.515625 L 24.15625 -77.75 L 27.703125 -77.75 Z M 27.703125 -61.671875 "/></g></g></g><g fill="#000000" fill-opacity="1"><g transform="translate(347.857378, 280.506572)"><g><path d="M 24.484375 -117.234375 C 26.796875 -117.234375 28.757812 -116.421875 30.375 -114.796875 C 32 -113.179688 32.8125 -111.21875 32.8125 -108.90625 C 32.8125 -106.59375 32 -104.613281 30.375 -102.96875 C 28.757812 -101.320312 26.796875 -100.5 24.484375 -100.5 C 22.171875 -100.5 20.191406 -101.320312 18.546875 -102.96875 C 16.898438 -104.613281 16.078125 -106.59375 16.078125 -108.90625 C 16.078125 -111.21875 16.882812 -113.179688 18.5 -114.796875 C 20.125 -116.421875 22.117188 -117.234375 24.484375 -117.234375 Z M 31.328125 -77.75 L 31.328125 -17.0625 C 31.328125 -12.332031 31.671875 -9.1875 32.359375 -7.625 C 33.046875 -6.0625 34.0625 -4.894531 35.40625 -4.125 C 36.75 -3.351562 39.207031 -2.96875 42.78125 -2.96875 L 42.78125 0 L 6.09375 0 L 6.09375 -2.96875 C 9.78125 -2.96875 12.253906 -3.320312 13.515625 -4.03125 C 14.785156 -4.75 15.789062 -5.929688 16.53125 -7.578125 C 17.269531 -9.234375 17.640625 -12.394531 17.640625 -17.0625 L 17.640625 -46.171875 C 17.640625 -54.359375 17.394531 -59.660156 16.90625 -62.078125 C 16.519531 -63.835938 15.910156 -65.0625 15.078125 -65.75 C 14.253906 -66.4375 13.128906 -66.78125 11.703125 -66.78125 C 10.171875 -66.78125 8.300781 -66.367188 6.09375 -65.546875 L 4.953125 -68.515625 L 27.703125 -77.75 Z M 31.328125 -77.75 "/></g></g></g><g fill="#000000" fill-opacity="1"><g transform="translate(394.756852, 280.506572)"><g><path d="M 27.28125 -61.75 C 36.132812 -72.414062 44.570312 -77.75 52.59375 -77.75 C 56.71875 -77.75 60.265625 -76.71875 63.234375 -74.65625 C 66.203125 -72.59375 68.566406 -69.195312 70.328125 -64.46875 C 71.535156 -61.175781 72.140625 -56.117188 72.140625 -49.296875 L 72.140625 -17.0625 C 72.140625 -12.28125 72.523438 -9.039062 73.296875 -7.34375 C 73.898438 -5.96875 74.875 -4.894531 76.21875 -4.125 C 77.5625 -3.351562 80.050781 -2.96875 83.6875 -2.96875 L 83.6875 0 L 46.328125 0 L 46.328125 -2.96875 L 47.90625 -2.96875 C 51.414062 -2.96875 53.867188 -3.503906 55.265625 -4.578125 C 56.671875 -5.648438 57.648438 -7.226562 58.203125 -9.3125 C 58.421875 -10.132812 58.53125 -12.71875 58.53125 -17.0625 L 58.53125 -47.984375 C 58.53125 -54.847656 57.632812 -59.832031 55.84375 -62.9375 C 54.0625 -66.050781 51.054688 -67.609375 46.828125 -67.609375 C 40.285156 -67.609375 33.769531 -64.035156 27.28125 -56.890625 L 27.28125 -17.0625 C 27.28125 -11.957031 27.585938 -8.796875 28.203125 -7.578125 C 28.960938 -5.984375 30.015625 -4.816406 31.359375 -4.078125 C 32.710938 -3.335938 35.453125 -2.96875 39.578125 -2.96875 L 39.578125 0 L 2.21875 0 L 2.21875 -2.96875 L 3.875 -2.96875 C 7.71875 -2.96875 10.3125 -3.941406 11.65625 -5.890625 C 13.007812 -7.847656 13.6875 -11.570312 13.6875 -17.0625 L 13.6875 -45.09375 C 13.6875 -54.164062 13.476562 -59.691406 13.0625 -61.671875 C 12.65625 -63.648438 12.023438 -64.992188 11.171875 -65.703125 C 10.316406 -66.421875 9.175781 -66.78125 7.75 -66.78125 C 6.207031 -66.78125 4.363281 -66.367188 2.21875 -65.546875 L 0.984375 -68.515625 L 23.75 -77.75 L 27.28125 -77.75 Z M 27.28125 -61.75 "/></g></g></g><g fill="#000000" fill-opacity="1"><g transform="translate(479.159348, 280.506572)"><g><path d="M 42.21875 -77.75 C 53.644531 -77.75 62.820312 -73.40625 69.75 -64.71875 C 75.625 -57.300781 78.5625 -48.78125 78.5625 -39.15625 C 78.5625 -32.394531 76.941406 -25.550781 73.703125 -18.625 C 70.460938 -11.707031 66 -6.488281 60.3125 -2.96875 C 54.625 0.550781 48.285156 2.3125 41.296875 2.3125 C 29.921875 2.3125 20.882812 -2.222656 14.1875 -11.296875 C 8.519531 -18.929688 5.6875 -27.503906 5.6875 -37.015625 C 5.6875 -43.941406 7.40625 -50.828125 10.84375 -57.671875 C 14.28125 -64.515625 18.800781 -69.570312 24.40625 -72.84375 C 30.007812 -76.113281 35.945312 -77.75 42.21875 -77.75 Z M 39.65625 -72.390625 C 36.738281 -72.390625 33.8125 -71.519531 30.875 -69.78125 C 27.9375 -68.050781 25.554688 -65.015625 23.734375 -60.671875 C 21.921875 -56.335938 21.015625 -50.757812 21.015625 -43.9375 C 21.015625 -32.945312 23.195312 -23.46875 27.5625 -15.5 C 31.9375 -7.53125 37.695312 -3.546875 44.84375 -3.546875 C 50.175781 -3.546875 54.570312 -5.742188 58.03125 -10.140625 C 61.5 -14.535156 63.234375 -22.09375 63.234375 -32.8125 C 63.234375 -46.21875 60.347656 -56.769531 54.578125 -64.46875 C 50.671875 -69.75 45.695312 -72.390625 39.65625 -72.390625 Z M 59.609375 -114.59375 L 35.296875 -86.15625 L 32.484375 -86.15625 L 41.140625 -114.59375 Z M 59.609375 -114.59375 "/></g></g></g><g fill="#000000" fill-opacity="1"><g transform="translate(563.561845, 280.506572)"><g><path d="M 31.25 -117.234375 L 31.25 -17.0625 C 31.25 -12.332031 31.59375 -9.195312 32.28125 -7.65625 C 32.96875 -6.125 34.023438 -4.957031 35.453125 -4.15625 C 36.878906 -3.363281 39.546875 -2.96875 43.453125 -2.96875 L 43.453125 0 L 6.4375 0 L 6.4375 -2.96875 C 9.894531 -2.96875 12.253906 -3.320312 13.515625 -4.03125 C 14.785156 -4.75 15.773438 -5.929688 16.484375 -7.578125 C 17.203125 -9.234375 17.5625 -12.394531 17.5625 -17.0625 L 17.5625 -85.65625 C 17.5625 -94.175781 17.367188 -99.410156 16.984375 -101.359375 C 16.597656 -103.316406 15.976562 -104.648438 15.125 -105.359375 C 14.269531 -106.078125 13.1875 -106.4375 11.875 -106.4375 C 10.445312 -106.4375 8.632812 -105.992188 6.4375 -105.109375 L 5.03125 -108 L 27.53125 -117.234375 Z M 31.25 -117.234375 "/></g></g></g><g fill="#000000" fill-opacity="1"><g transform="translate(610.461319, 280.506572)"><g><path d="M 42.21875 -77.75 C 53.644531 -77.75 62.820312 -73.40625 69.75 -64.71875 C 75.625 -57.300781 78.5625 -48.78125 78.5625 -39.15625 C 78.5625 -32.394531 76.941406 -25.550781 73.703125 -18.625 C 70.460938 -11.707031 66 -6.488281 60.3125 -2.96875 C 54.625 0.550781 48.285156 2.3125 41.296875 2.3125 C 29.921875 2.3125 20.882812 -2.222656 14.1875 -11.296875 C 8.519531 -18.929688 5.6875 -27.503906 5.6875 -37.015625 C 5.6875 -43.941406 7.40625 -50.828125 10.84375 -57.671875 C 14.28125 -64.515625 18.800781 -69.570312 24.40625 -72.84375 C 30.007812 -76.113281 35.945312 -77.75 42.21875 -77.75 Z M 39.65625 -72.390625 C 36.738281 -72.390625 33.8125 -71.519531 30.875 -69.78125 C 27.9375 -68.050781 25.554688 -65.015625 23.734375 -60.671875 C 21.921875 -56.335938 21.015625 -50.757812 21.015625 -43.9375 C 21.015625 -32.945312 23.195312 -23.46875 27.5625 -15.5 C 31.9375 -7.53125 37.695312 -3.546875 44.84375 -3.546875 C 50.175781 -3.546875 54.570312 -5.742188 58.03125 -10.140625 C 61.5 -14.535156 63.234375 -22.09375 63.234375 -32.8125 C 63.234375 -46.21875 60.347656 -56.769531 54.578125 -64.46875 C 50.671875 -69.75 45.695312 -72.390625 39.65625 -72.390625 Z M 39.65625 -72.390625 "/></g></g></g><g fill="#000000" fill-opacity="1"><g transform="translate(694.863815, 280.506572)"><g><path d="M 25.46875 -27.53125 C 20.851562 -29.789062 17.304688 -32.9375 14.828125 -36.96875 C 12.359375 -41.007812 11.125 -45.476562 11.125 -50.375 C 11.125 -57.84375 13.941406 -64.269531 19.578125 -69.65625 C 25.210938 -75.050781 32.425781 -77.75 41.21875 -77.75 C 48.414062 -77.75 54.65625 -75.988281 59.9375 -72.46875 L 75.9375 -72.46875 C 78.289062 -72.46875 79.660156 -72.398438 80.046875 -72.265625 C 80.429688 -72.128906 80.707031 -71.894531 80.875 -71.5625 C 81.207031 -71.0625 81.375 -70.179688 81.375 -68.921875 C 81.375 -67.492188 81.234375 -66.503906 80.953125 -65.953125 C 80.796875 -65.679688 80.507812 -65.460938 80.09375 -65.296875 C 79.675781 -65.128906 78.289062 -65.046875 75.9375 -65.046875 L 66.125 -65.046875 C 69.195312 -61.085938 70.734375 -56.03125 70.734375 -49.875 C 70.734375 -42.84375 68.039062 -36.828125 62.65625 -31.828125 C 57.269531 -26.828125 50.039062 -24.328125 40.96875 -24.328125 C 37.238281 -24.328125 33.421875 -24.875 29.515625 -25.96875 C 27.097656 -23.882812 25.460938 -22.054688 24.609375 -20.484375 C 23.753906 -18.921875 23.328125 -17.585938 23.328125 -16.484375 C 23.328125 -15.554688 23.78125 -14.648438 24.6875 -13.765625 C 25.59375 -12.890625 27.367188 -12.257812 30.015625 -11.875 C 31.546875 -11.65625 35.390625 -11.460938 41.546875 -11.296875 C 52.867188 -11.015625 60.207031 -10.628906 63.5625 -10.140625 C 68.675781 -9.421875 72.753906 -7.519531 75.796875 -4.4375 C 78.847656 -1.363281 80.375 2.421875 80.375 6.921875 C 80.375 13.128906 77.460938 18.957031 71.640625 24.40625 C 63.066406 32.425781 51.882812 36.4375 38.09375 36.4375 C 27.476562 36.4375 18.519531 34.046875 11.21875 29.265625 C 7.09375 26.515625 5.03125 23.65625 5.03125 20.6875 C 5.03125 19.375 5.332031 18.054688 5.9375 16.734375 C 6.875 14.703125 8.796875 11.875 11.703125 8.25 C 12.085938 7.75 14.890625 4.78125 20.109375 -0.65625 C 17.253906 -2.363281 15.234375 -3.890625 14.046875 -5.234375 C 12.867188 -6.578125 12.28125 -8.101562 12.28125 -9.8125 C 12.28125 -11.738281 13.0625 -13.992188 14.625 -16.578125 C 16.195312 -19.160156 19.8125 -22.8125 25.46875 -27.53125 Z M 39.8125 -73.78125 C 35.75 -73.78125 32.34375 -72.160156 29.59375 -68.921875 C 26.84375 -65.679688 25.46875 -60.707031 25.46875 -54 C 25.46875 -45.3125 27.335938 -38.578125 31.078125 -33.796875 C 33.941406 -30.171875 37.570312 -28.359375 41.96875 -28.359375 C 46.144531 -28.359375 49.578125 -29.925781 52.265625 -33.0625 C 54.960938 -36.195312 56.3125 -41.113281 56.3125 -47.8125 C 56.3125 -56.550781 54.414062 -63.394531 50.625 -68.34375 C 47.820312 -71.96875 44.21875 -73.78125 39.8125 -73.78125 Z M 24.65625 0 C 22.070312 2.800781 20.117188 5.410156 18.796875 7.828125 C 17.472656 10.242188 16.8125 12.472656 16.8125 14.515625 C 16.8125 17.148438 18.40625 19.457031 21.59375 21.4375 C 27.09375 24.84375 35.035156 26.546875 45.421875 26.546875 C 55.316406 26.546875 62.613281 24.800781 67.3125 21.3125 C 72.007812 17.820312 74.359375 14.097656 74.359375 10.140625 C 74.359375 7.285156 72.957031 5.253906 70.15625 4.046875 C 67.300781 2.828125 61.640625 2.109375 53.171875 1.890625 C 40.804688 1.566406 31.300781 0.9375 24.65625 0 Z M 24.65625 0 "/></g></g></g><g fill="#000000" fill-opacity="1"><g transform="translate(779.266311, 280.506572)"><g><path d="M 42.21875 -77.75 C 53.644531 -77.75 62.820312 -73.40625 69.75 -64.71875 C 75.625 -57.300781 78.5625 -48.78125 78.5625 -39.15625 C 78.5625 -32.394531 76.941406 -25.550781 73.703125 -18.625 C 70.460938 -11.707031 66 -6.488281 60.3125 -2.96875 C 54.625 0.550781 48.285156 2.3125 41.296875 2.3125 C 29.921875 2.3125 20.882812 -2.222656 14.1875 -11.296875 C 8.519531 -18.929688 5.6875 -27.503906 5.6875 -37.015625 C 5.6875 -43.941406 7.40625 -50.828125 10.84375 -57.671875 C 14.28125 -64.515625 18.800781 -69.570312 24.40625 -72.84375 C 30.007812 -76.113281 35.945312 -77.75 42.21875 -77.75 Z M 39.65625 -72.390625 C 36.738281 -72.390625 33.8125 -71.519531 30.875 -69.78125 C 27.9375 -68.050781 25.554688 -65.015625 23.734375 -60.671875 C 21.921875 -56.335938 21.015625 -50.757812 21.015625 -43.9375 C 21.015625 -32.945312 23.195312 -23.46875 27.5625 -15.5 C 31.9375 -7.53125 37.695312 -3.546875 44.84375 -3.546875 C 50.175781 -3.546875 54.570312 -5.742188 58.03125 -10.140625 C 61.5 -14.535156 63.234375 -22.09375 63.234375 -32.8125 C 63.234375 -46.21875 60.347656 -56.769531 54.578125 -64.46875 C 50.671875 -69.75 45.695312 -72.390625 39.65625 -72.390625 Z M 39.65625 -72.390625 "/></g></g></g></g></g></svg>